<svg height="42" width="120" xmlns="http://www.w3.org/2000/svg">
  <g transform="matrix(.9937808 0 0 .9936696 -437.12334 -74.436914)">
    <path
      d="m443.28857 75.3667 114.06348.20264c1.59375 0 3.01758-.23633 3.01758 3.18066l-.13965 37.56689h-119.82031v-37.70654c0-1.68506.16308-3.24365 2.8789-3.24365z"
      fill="#aab2ab" />
    <path
      d="m558.34912 74.91113h-116.22851c-1.24707 0-2.26172 1.01465-2.26172 2.26123v39.49609c0 .28174.22852.51025.51074.51025h119.72949c.28223 0 .51074-.22852.51074-.51025v-39.49609c0-1.24658-1.01465-2.26123-2.26074-2.26123zm-116.22851 1.02149h116.22852c.68359 0 1.23926.55615 1.23926 1.23975v27.39404h-83.07324c-3.04492 5.50586-8.91211 9.24414-15.64453 9.24414-6.73438 0-12.59961-3.73486-15.64258-9.24414h-4.34766c0-11.49707 0-27.39404 0-27.39404-.00001-.6836.55663-1.23975 1.24023-1.23975z" />
    <g transform="matrix(.872921 0 0 .872921 50.12536 143.2144)">
      <path cx="296.35416" cy="264.3577"
        d="m486.26599-55.7066c.00555 8.68079-7.02789 15.7215-15.70813 15.72708-8.68018.00562-15.7215-7.02786-15.72705-15.7081 0-.00671 0-.01227 0-.01898-.00562-8.68079 7.02783-15.7215 15.70807-15.72711 8.68134-.005 15.7226 7.02783 15.72711 15.70807z"
        fill="#fff" rx="22.939548" ry="22.939548" type="arc" />
      <path
        d="m772.94165-167.5741c3.48486 3.48541 5.22778 7.75336 5.22778 12.80219 0 5.04938-1.71277 9.27203-5.13831 12.66794-3.63586 3.57602-7.93176 5.36374-12.89001 5.36374-4.89783 0-9.11987-1.77264-12.66394-5.31955-3.54639-3.54526-5.31848-7.78244-5.31848-12.71213 0-4.92859 1.77209-9.19598 5.31848-12.80219 3.45459-3.48651 7.67664-5.22949 12.66394-5.22949 5.04883 0 9.31458 1.74298 12.80054 5.22949zm-23.11853 2.34485c-2.94678 2.97638-4.42017 6.46289-4.42017 10.46179s1.45886 7.45581 4.37427 10.37122c2.9176 2.9165 6.38904 4.37476 10.4176 4.37476s7.53015-1.47281 10.50708-4.41895c2.82593-2.73645 4.23889-6.17767 4.23889-10.32703 0-4.11749-1.4364-7.61292-4.30823-10.48419-2.87061-2.87061-6.34985-4.30652-10.43774-4.30652s-7.54699 1.44318-10.3717 4.32892zm7.75391 8.70319c-.44971-.98169-1.12317-1.47284-2.02271-1.47284-1.58862 0-2.38293 1.07007-2.38293 3.20911 0 2.13953.79431 3.2085 2.38293 3.2085 1.04944 0 1.79895-.52075 2.24866-1.56458l2.20276 1.17303c-1.05042 1.86548-2.62561 2.79901-4.72546 2.79901-1.62 0-2.91772-.4967-3.89209-1.48956-.97546-.99341-1.46326-2.36334-1.46326-4.10852 0-1.71503.50342-3.07654 1.50806-4.08502 1.00452-1.00854 2.25757-1.51257 3.75781-1.51257 2.22058 0 3.8092.87488 4.77136 2.62286zm10.36389 0c-.45081-.98169-1.11206-1.47284-1.98242-1.47284-1.62097 0-2.43213 1.07007-2.43213 3.20911 0 2.13953.81116 3.2085 2.43213 3.2085 1.05164 0 1.78772-.52075 2.20728-1.56458l2.25195 1.17303c-1.04822 1.86548-2.62109 2.79901-4.71765 2.79901-1.61768 0-2.91199-.4967-3.88647-1.48956-.97217-.99341-1.45996-2.36334-1.45996-4.10852 0-1.71503.49451-3.07654 1.48352-4.08502.98779-1.00854 2.24524-1.51257 3.77344-1.51257 2.21619 0 3.80371.87488 4.76135 2.62286z"
        transform="translate(-289.6157 99.0653)" />
    </g>
    <circle cx="491.94629" cy="90.231934" fill="#fff" r="10.80615" />
    <path
      d="m495.07373 87.10498c0-.4165-.33789-.75391-.75391-.75391h-4.77246c-.41602 0-.75391.3374-.75391.75391v4.77295h1.33105v5.65186h3.61719v-5.65186h1.33203v-4.77295z" />
    <circle cx="491.93359" cy="84.090332" r="1.63232" />
    <path clip-rule="evenodd"
      d="m491.91846 78.3252c-3.23145 0-5.96777 1.12793-8.20703 3.38379-2.29785 2.3335-3.44629 5.0957-3.44629 8.28467s1.14844 5.93164 3.44629 8.22705c2.29785 2.29395 5.03418 3.44189 8.20703 3.44189 3.21289 0 5.99805-1.15674 8.35449-3.47168 2.21973-2.19727 3.3291-4.92969 3.3291-8.19727s-1.12891-6.02881-3.3877-8.28467-5.02343-3.38378-8.29589-3.38378zm.03027 2.0996c2.64844 0 4.89648.93408 6.74609 2.80127 1.87012 1.84717 2.80469 4.10352 2.80469 6.76758 0 2.68359-.91504 4.91064-2.74609 6.68066-1.92773 1.90576-4.19629 2.8584-6.80469 2.8584-2.61035 0-4.85938-.94287-6.74805-2.82959-1.88867-1.88623-2.83301-4.12256-2.83301-6.70947s.9541-4.84229 2.8623-6.76758c1.83107-1.86718 4.07032-2.80127 6.71876-2.80127z"
      fill-rule="evenodd" />
    <g fill="#fff">
      <g enable-background="new">
        <path
          d="m488.56299 107.86719c.31738 0 .60742.02832.86914.08398s.48633.14746.67383.27539c.18652.12695.33105.29688.43457.50781.10254.21191.1543.47266.1543.78418 0 .33594-.07617.61523-.22949.83887-.15234.22461-.37891.40723-.67773.55078.41211.11816.71973.3252.92285.62109s.30469.65234.30469 1.06934c0 .33594-.06543.62695-.19629.87305-.13086.24512-.30762.44629-.5293.60156-.2207.15625-.47363.27148-.75684.3457-.28418.0752-.5752.1123-.875.1123h-3.23633v-6.66406h3.1416zm-.1875 2.69531c.26172 0 .47656-.0625.64453-.18652.16895-.12402.25293-.3252.25293-.60449 0-.15527-.02832-.2832-.08398-.38184-.05664-.09961-.13086-.17676-.22461-.2334-.09375-.05566-.20117-.09473-.32227-.11621-.12207-.02148-.24805-.03223-.37891-.03223h-1.37305v1.55469zm.08594 2.82812c.14355 0 .28027-.01367.41113-.04199s.24609-.0752.34668-.13965c.09961-.06543.17871-.1543.23828-.2666.05859-.11133.08887-.25488.08887-.42871 0-.3418-.09668-.58594-.29004-.73242-.19336-.14551-.44922-.21875-.7666-.21875h-1.59961v1.82812z" />
        <path
          d="m491.27393 107.86719h1.64258l1.56055 2.63184 1.55176-2.63184h1.63379l-2.47461 4.10645v2.55762h-1.46875v-2.59473z" />
      </g>
      <g enable-background="new">
        <path
          d="m538.91553 112.88379c.08105.15527.1875.28125.32129.37793s.29004.16797.4707.21484c.17969.04688.36523.07031.55859.07031.12988 0 .26953-.01074.41895-.0332.14844-.02148.28809-.06348.41895-.12598.12988-.06152.23828-.14746.32617-.25684.08594-.1084.12988-.24707.12988-.41504 0-.18066-.05762-.32617-.17285-.43848-.11426-.1123-.26562-.20508-.45117-.28027-.18652-.07422-.39844-.13965-.63379-.19629-.23633-.05566-.47559-.11816-.71777-.18652-.24902-.0625-.49121-.13867-.72754-.22852-.23535-.08984-.44727-.20703-.63379-.35059-.18555-.14258-.33691-.32129-.45117-.53613-.11523-.21484-.17285-.47461-.17285-.7793 0-.34277.07324-.63965.21875-.8916.14648-.25195.33789-.46191.57324-.63086.23633-.16797.50391-.29199.80273-.37305.29785-.08105.59668-.12109.89453-.12109.34863 0 .68262.03906 1.00293.11719.31934.07715.60449.2041.85254.37793.24902.1748.44629.39746.59277.66797.14551.27148.21875.59961.21875.98535h-1.42188c-.0127-.19922-.05371-.36426-.125-.49414-.07129-.13086-.16602-.2334-.28418-.30859-.11719-.07422-.25195-.12793-.40332-.1582-.15137-.03125-.31738-.04688-.49707-.04688-.11719 0-.23535.0127-.35254.03711-.11816.02539-.22461.06836-.32031.13086-.09668.0625-.1748.13965-.2373.2334-.06152.09375-.09277.21191-.09277.35449 0 .13086.02441.2373.07422.31738.0498.08105.14746.15625.29395.22461s.34766.13672.60547.20508.5957.15625 1.01172.26172c.12402.02441.29688.07031.5166.13574.2207.06543.44043.16895.65723.3125.21777.14355.40527.33496.56445.57422.1582.23926.2373.5459.2373.91992 0 .30469-.05957.58789-.17773.84961s-.29395.4873-.52734.67676c-.2334.19043-.52246.33789-.86816.44336-.34473.10645-.74414.15918-1.19922.15918-.36719 0-.72266-.0459-1.06836-.13574-.3457-.09082-.65039-.23242-.91406-.42578-.26465-.19336-.47461-.44043-.63086-.73926-.15527-.29883-.23047-.65332-.22363-1.06445h1.42188c-.00003.22364.04001.41407.12107.56934z" />
        <path
          d="m547.17236 107.86719 2.49219 6.66406h-1.52148l-.50391-1.48438h-2.49219l-.52344 1.48438h-1.47461l2.52051-6.66406zm.08399 4.08593-.83984-2.44336h-.01953l-.86719 2.44336z" />
      </g>
      <g enable-background="new">
        <path
          d="m512.83057 107.86719 2.78418 4.4707h.01562v-4.4707h1.375v6.66406h-1.46582l-2.77344-4.46191h-.01855v4.46191h-1.375v-6.66406z" />
        <path
          d="m522.56885 109.64258c-.08691-.14062-.19629-.26367-.32715-.36914s-.27832-.18848-.44336-.24707c-.16504-.05957-.33789-.08887-.51758-.08887-.33008 0-.61035.06348-.84082.19141-.23047.12695-.41699.29785-.55957.5127-.14355.21484-.24805.45898-.31348.73242s-.09766.55664-.09766.84863c0 .28027.03223.55273.09766.81641.06543.26465.16992.50293.31348.71387.14258.21191.3291.38086.55957.50879s.51074.19141.84082.19141c.44727 0 .79785-.13672 1.0498-.41113.25195-.27344.40625-.63477.46191-1.08301h1.41895c-.03711.41699-.13379.79395-.28906 1.12988-.15527.33691-.36133.62305-.61621.86035s-.55371.41797-.89648.54297c-.3418.125-.71875.1875-1.12891.1875-.51074 0-.96973-.08887-1.37793-.2666-.40723-.17676-.75195-.42188-1.03223-.73242-.28027-.31152-.49609-.67773-.64551-1.09766-.14941-.4209-.22461-.87305-.22461-1.35938 0-.49805.0752-.95996.22461-1.38672s.36523-.79883.64551-1.11621.625-.56641 1.03223-.74707c.4082-.18066.86719-.27051 1.37793-.27051.36719 0 .71387.05273 1.04004.15918.32715.10547.62012.25977.87793.46289.25879.20215.47168.45312.63965.75195s.27344.6416.31738 1.02734h-1.41895c-.02538-.16797-.08105-.32226-.16796-.46191z" />
      </g>
    </g>
    <g transform="matrix(.624995 0 0 .624995 152.2987 316.9328)">
      <path cx="475.97119" cy="252.08646"
        d="m644.57642-363.11569c.00781 9.4118-7.61731 17.04779-17.02979 17.05481-9.4126.00549-17.047-7.61725-17.05493-17.03137 0-.00702 0-.01642 0-.02344-.00623-9.4118 7.6189-17.04779 17.02991-17.05481 9.4126-.00702 17.047 7.61804 17.05481 17.02905z"
        fill="#fff" rx="29.209877" ry="29.209877" type="arc" />
      <g transform="translate(-23.9521 -89.72962)">
        <path
          d="m651.36426-292.05655c-5.17188 0-9.55005 1.80548-13.13135 5.41333-3.67651 3.73444-5.51562 8.15399-5.51562 13.25714s1.83911 9.48993 5.51562 13.1626c3.67505 3.67194 8.05322 5.50787 13.13135 5.50787 5.14075 0 9.59546-1.85236 13.36572-5.55396 3.55164-3.51721 5.32825-7.88916 5.32825-13.11652 0-5.22742-1.80627-9.64697-5.422-13.25714-3.61401-3.60784-8.03748-5.41332-13.27197-5.41332zm.04687 3.36096c4.23755 0 7.83447 1.49298 10.79541 4.48132 2.99072 2.95544 4.48596 6.56329 4.48596 10.82819 0 4.29376-1.46399 7.85632-4.3938 10.68994-3.08276 3.04846-6.71411 4.57269-10.88757 4.57269-4.17505 0-7.77344-1.5094-10.79541-4.5274-3.02185-3.01874-4.53284-6.59613-4.53284-10.73523s1.52502-7.74847 4.57971-10.82819c2.92823-2.98834 6.51099-4.48132 10.74854-4.48132z" />
        <path
          d="m643.08923-276.02048c.74377-4.69849 4.05005-7.20941 8.19543-7.20941 5.95935 0 9.59216 4.32501 9.59216 10.09222 0 5.62817-3.8656 9.99854-9.68604 9.99854-4.00464 0-7.59058-2.46332-8.24219-7.30084h4.70312c.14062 2.51099 1.77039 3.39532 4.09851 3.39532 2.6532 0 4.37659-2.46484 4.37659-6.23206 0-3.95471-1.48901-6.04614-4.28442-6.04614-2.04846 0-3.81726.74451-4.19067 3.30237l1.36719-.0094-3.70154 3.70319-3.70166-3.70319z" />
      </g>
    </g>
    <g transform="matrix(1.146822 0 0 1.146822 -85.92464 166.153)">
      <path cx="475.97119" cy="252.08646"
        d="m536.23669-66.41458c.00427 5.22845-4.23126 9.46783-9.45801 9.4725-5.2276.00342-9.46912-4.23129-9.47253-9.45886 0-.0047 0-.00937 0-.01364-.00421-5.2276 4.23132-9.46783 9.45807-9.4725 5.2276-.00342 9.46912 4.23172 9.47247 9.45889z"
        fill="#fff" rx="29.209877" ry="29.209877" type="arc" />
      <path
        d="m526.75824-76.5896c2.85266 0 5.26337.98395 7.23297 2.95016 1.97046 1.96747 2.95483 4.37604 2.95483 7.22485s-.9682 5.23141-2.90289 7.14825c-2.0556 2.01813-4.48334 3.02676-7.28491 3.02676-2.76752 0-5.1535-1.00055-7.15631-3.00165-2.00366-2.00027-3.00592-4.39224-3.00592-7.17337s1.00226-5.1897 3.00592-7.22485c1.95257-1.9662 4.33771-2.95015 7.15631-2.95015zm-7.87244 7.44159c-.30402.85834-.45557 1.7695-.45557 2.73343 0 2.25574.82343 4.20532 2.47028 5.85049 1.64685 1.64474 3.60797 2.46735 5.8833 2.46735 2.27527 0 4.25342-.83069 5.93433-2.49289.56201-.5437 1.02612-1.13681 1.38971-1.77972l-3.83533-1.70816c-.2597 1.29092-1.4101 2.16205-2.80066 2.26465v1.56897h-1.16833v-1.56897c-1.14105-.01318-2.24463-.48026-3.0885-1.21854l1.40161-1.41272c.67523.63483 1.34967.9201 2.27106.9201.59778 0 1.2594-.23334 1.2594-1.01163 0-.27505-.1073-.46707-.27502-.61099l-.96991-.43216-1.20831-.53775c-.59778-.26608-1.10364-.49091-1.61115-.71741zm7.89801-5.60992c-2.30939 0-4.26111.81363-5.85773 2.4422-.43433.43811-.81238.89624-1.13342 1.37439l3.88983 1.7316c.35168-1.07889 1.37695-1.73373 2.62103-1.80655v-1.56894h1.16833v1.56894c.80469.03918 1.68689.25974 2.55713.93329l-1.33691 1.37396c-.4939-.34955-1.11633-.59607-1.73969-.59607-.5058 0-1.21942.15497-1.21942.78979 0 .0975.03241.18307.09113.25845l1.30115.57947.88049.39255c.56372.25122 1.10107.48962 1.63409.7272l5.21399 2.32132c.172-.68295.258-1.4093.258-2.17825 0-2.32428-.81488-4.29047-2.44391-5.90115-1.61364-1.62858-3.57476-2.4422-5.88409-2.4422z" />
    </g>
  </g>
</svg>